# xmcd CD database file
#
# Track frame offsets:
#	150
#	23133
#	38013
#	66646
#	90136
#	105188
#	123119
#	148597
#	164892
#	183830
#	211881
#
# Disc length: 3145 seconds
#
# Revision: 0
# Processed by: cddbd v1.4PL0 Copyright (c) Steve Scherf et al.
# Submitted via: CDex 1.50Beta6
#
DISCID=8b0c470b
DTITLE=T-Bone Stone - Bases Loaded
DYEAR=1900
DGENRE=Blues
TTITLE0=New Way Of Walkin
TTITLE1=Chummin The Blues
TTITLE2=Autumn Rain
TTITLE3=Poor Boy
TTITLE4=You're Knockin
TTITLE5=Jail Time
TTITLE6=Georgia Way
TTITLE7=Boogie Man
TTITLE8=Ruby In The Sand
TTITLE9=Rajun Cajun Woman
TTITLE10=Too Many Elvises
EXTD=
EXTT0=
EXTT1=
EXTT2=
EXTT3=
EXTT4=
EXTT5=
EXTT6=
EXTT7=
EXTT8=
EXTT9=
EXTT10=
PLAYORDER=
